<?xml version="1.0" encoding="UTF-8" standalone="no"?>
<!-- Created with Inkscape (http://www.inkscape.org/) -->

<svg
   width="256"
   height="256"
   viewBox="0 0 67.73333 67.733335"
   version="1.1"
   id="svg1"
   inkscape:version="1.4 (86a8ad7, 2024-10-11)"
   sodipodi:docname="Plus_Blue_S.svg"
   xml:space="preserve"
   inkscape:export-filename="Plus_Blue_S_128x128.png"
   inkscape:export-xdpi="48"
   inkscape:export-ydpi="48"
   xmlns:inkscape="http://www.inkscape.org/namespaces/inkscape"
   xmlns:sodipodi="http://sodipodi.sourceforge.net/DTD/sodipodi-0.dtd"
   xmlns="http://www.w3.org/2000/svg"
   xmlns:svg="http://www.w3.org/2000/svg"><sodipodi:namedview
     id="namedview1"
     pagecolor="#252525"
     bordercolor="#000000"
     borderopacity="0.25"
     inkscape:showpageshadow="2"
     inkscape:pageopacity="0.0"
     inkscape:pagecheckerboard="0"
     inkscape:deskcolor="#404040"
     inkscape:document-units="px"
     inkscape:zoom="1.5036158"
     inkscape:cx="117.71624"
     inkscape:cy="131.35004"
     inkscape:window-width="1920"
     inkscape:window-height="1009"
     inkscape:window-x="1072"
     inkscape:window-y="421"
     inkscape:window-maximized="1"
     inkscape:current-layer="svg1"
     showgrid="false"><inkscape:grid
       id="grid1"
       units="px"
       originx="0"
       originy="0"
       spacingx="0.26458332"
       spacingy="0.26458334"
       empcolor="#0099e5"
       empopacity="0.30196078"
       color="#0099e5"
       opacity="0.14901961"
       empspacing="5"
       enabled="true"
       visible="false" /></sodipodi:namedview><defs
     id="defs1"><inkscape:path-effect
       effect="fillet_chamfer"
       id="path-effect10"
       is_visible="true"
       lpeversion="1"
       nodesatellites_param="F,0,0,1,0,0.65283759,0,1 @ F,0,0,1,0,0.57318386,0,1 @ F,0,0,1,0,1.0515356,0,1 @ F,0,0,1,0,1.4900256,0,1 @ F,0,0,1,0,1.8135224,0,1 @ F,0,0,1,0,0.7823008,0,1"
       radius="0"
       unit="px"
       method="auto"
       mode="F"
       chamfer_steps="1"
       flexible="false"
       use_knot_distance="true"
       apply_no_radius="true"
       apply_with_radius="true"
       only_selected="false"
       hide_knots="false" /><inkscape:path-effect
       effect="fillet_chamfer"
       id="path-effect7"
       is_visible="true"
       lpeversion="1"
       nodesatellites_param="F,0,0,1,0,0.69638098,0,1 @ F,0,0,1,0,0,0,1 @ F,0,0,1,0,0,0,1 @ F,0,0,1,0,0,0,1 @ F,0,0,1,0,0.84502429,0,1"
       radius="0"
       unit="px"
       method="auto"
       mode="F"
       chamfer_steps="1"
       flexible="false"
       use_knot_distance="true"
       apply_no_radius="true"
       apply_with_radius="true"
       only_selected="false"
       hide_knots="false" /><inkscape:path-effect
       effect="fillet_chamfer"
       id="path-effect5"
       is_visible="true"
       lpeversion="1"
       nodesatellites_param="F,0,0,1,0,2.5309276,0,1 @ F,0,0,1,0,0,0,1 @ F,0,0,1,0,0,0,1 @ F,0,0,1,0,0,0,1"
       radius="0"
       unit="px"
       method="auto"
       mode="F"
       chamfer_steps="1"
       flexible="false"
       use_knot_distance="true"
       apply_no_radius="true"
       apply_with_radius="true"
       only_selected="false"
       hide_knots="false" /></defs><path
     id="path11"
     style="display:inline;fill:#ffffff;fill-rule:evenodd;stroke:#000000;stroke-width:5.40236;stroke-linecap:round;stroke-linejoin:round;stroke-miterlimit:2;stroke-dasharray:none;stroke-opacity:1;paint-order:stroke fill markers"
     d="m 17.992296,2.7011838 c -1.162954,0 -2.087354,0.9429979 -2.105802,2.1057994 -0.168599,10.6222428 -0.493164,22.5122958 8.764769,29.2716678 3.485549,2.54486 5.436685,3.926099 5.481703,8.119913 h 3.729846 3.729848 c 0.04501,-4.193814 1.996152,-5.575053 5.481713,-8.119913 9.257923,-6.759372 8.93336,-18.649425 8.764773,-29.2716678 C 51.820693,3.6441817 50.896283,2.7011838 49.733342,2.7011838 H 33.862812 Z M 11.492503,5.0168097 C 7.1994477,5.0256976 2.7808086,6.9917721 3.4877463,12.886499 4.6574231,22.639593 12.947884,26.403935 16.582598,27.199907 L 14.809019,22.106192 C 12.231301,20.671764 9.5697052,18.965772 8.357467,14.312174 7.383972,10.575071 9.0927199,8.8961536 12.587159,9.4487858 c 0.232964,0.036833 0.474062,0.083755 0.72264,0.1404875 V 5.1274499 C 12.716943,5.0545956 12.105796,5.0155406 11.492503,5.0168132 Z m 44.740631,0 c -0.613292,-0.00136 -1.224452,0.037784 -1.817292,0.1106367 v 4.4618238 c 3.977102,-0.9076559 5.990722,0.7366588 4.952317,4.7228988 -1.212242,4.6536 -3.873832,6.359591 -6.451555,7.79402 l -0.886782,2.546857 -0.886784,2.546858 C 54.777744,26.403931 63.068214,22.63959 64.23788,12.886496 64.944828,6.991769 60.52619,5.0256852 56.233134,5.0168068 Z M 30.18935,45.23351 c -1.034213,4.232784 -3.595608,6.336351 -8.150667,6.311364 -0.319961,-0.002 -0.57913,0.245583 -0.57913,0.565569 v 4.704202 1.902608 h -4.198632 c -0.424567,0 -0.766057,0.341491 -0.766057,0.766053 v 4.675871 c 0,0.424565 0.34149,0.76634 0.766057,0.76634 h 16.601891 16.601903 c 0.42457,0 0.76605,-0.341775 0.76605,-0.76634 v -4.675871 c 0,-0.424562 -0.34148,-0.766053 -0.76605,-0.766053 h -4.198631 v -1.902608 -4.704202 c 0,-0.319986 -0.259179,-0.567437 -0.579133,-0.565569 -4.555055,0.02504 -7.11646,-2.07858 -8.150664,-6.311364 h -3.673475 z"
     sodipodi:nodetypes="scscccssscsssccssccssccscccssccsccsssscssssccscccccs"
     inkscape:label="Trophy - Stroke" /><path
     id="path17"
     style="display:inline;fill:#6ac5fe;fill-opacity:1;fill-rule:evenodd;stroke:#000000;stroke-width:3.31165;stroke-linecap:round;stroke-linejoin:round;stroke-miterlimit:2;stroke-dasharray:none;stroke-opacity:1"
     d="m 46.470679,34.37228 c -0.760076,0 -1.372002,0.611925 -1.372002,1.372001 v 9.206954 h -9.206954 c -0.760073,0 -1.372004,0.611926 -1.372004,1.371999 v 7.696701 c 0,0.760076 0.611931,1.372002 1.372004,1.372002 h 9.206954 v 9.206955 c 0,0.760077 0.611926,1.371997 1.372002,1.371997 h 7.696689 c 0.760082,0 1.372007,-0.61192 1.372007,-1.371997 v -9.206955 h 9.206955 c 0.760065,0 1.371997,-0.611926 1.371997,-1.372002 v -7.696701 c 0,-0.760073 -0.611932,-1.371999 -1.371997,-1.371999 h -9.206959 v -9.206954 c 0,-0.760076 -0.611927,-1.372001 -1.372003,-1.372001 z"
     inkscape:label="Plus Icon - Blue" /></svg>
