<?xml version="1.0" encoding="UTF-8" standalone="no"?>
<!-- Created with Inkscape (http://www.inkscape.org/) -->

<svg
   width="256"
   height="256"
   viewBox="0 0 67.73333 67.733335"
   version="1.1"
   id="svg1"
   inkscape:version="1.4 (86a8ad7, 2024-10-11)"
   sodipodi:docname="Star_Orange_NS.svg"
   xml:space="preserve"
   inkscape:export-filename="Star_Orange_NS_128x128.png"
   inkscape:export-xdpi="48"
   inkscape:export-ydpi="48"
   xmlns:inkscape="http://www.inkscape.org/namespaces/inkscape"
   xmlns:sodipodi="http://sodipodi.sourceforge.net/DTD/sodipodi-0.dtd"
   xmlns="http://www.w3.org/2000/svg"
   xmlns:svg="http://www.w3.org/2000/svg"><sodipodi:namedview
     id="namedview1"
     pagecolor="#252525"
     bordercolor="#000000"
     borderopacity="0.25"
     inkscape:showpageshadow="2"
     inkscape:pageopacity="0.0"
     inkscape:pagecheckerboard="0"
     inkscape:deskcolor="#404040"
     inkscape:document-units="px"
     inkscape:zoom="1.0632169"
     inkscape:cx="121.3299"
     inkscape:cy="162.24347"
     inkscape:window-width="1920"
     inkscape:window-height="1009"
     inkscape:window-x="1072"
     inkscape:window-y="421"
     inkscape:window-maximized="1"
     inkscape:current-layer="svg1"
     showgrid="false"><inkscape:grid
       id="grid1"
       units="px"
       originx="0"
       originy="0"
       spacingx="0.26458332"
       spacingy="0.26458334"
       empcolor="#0099e5"
       empopacity="0.30196078"
       color="#0099e5"
       opacity="0.14901961"
       empspacing="5"
       enabled="true"
       visible="false" /></sodipodi:namedview><defs
     id="defs1"><inkscape:path-effect
       effect="fillet_chamfer"
       id="path-effect10"
       is_visible="true"
       lpeversion="1"
       nodesatellites_param="F,0,0,1,0,0.65283759,0,1 @ F,0,0,1,0,0.57318386,0,1 @ F,0,0,1,0,1.0515356,0,1 @ F,0,0,1,0,1.4900256,0,1 @ F,0,0,1,0,1.8135224,0,1 @ F,0,0,1,0,0.7823008,0,1"
       radius="0"
       unit="px"
       method="auto"
       mode="F"
       chamfer_steps="1"
       flexible="false"
       use_knot_distance="true"
       apply_no_radius="true"
       apply_with_radius="true"
       only_selected="false"
       hide_knots="false" /><inkscape:path-effect
       effect="fillet_chamfer"
       id="path-effect7"
       is_visible="true"
       lpeversion="1"
       nodesatellites_param="F,0,0,1,0,0.69638098,0,1 @ F,0,0,1,0,0,0,1 @ F,0,0,1,0,0,0,1 @ F,0,0,1,0,0,0,1 @ F,0,0,1,0,0.84502429,0,1"
       radius="0"
       unit="px"
       method="auto"
       mode="F"
       chamfer_steps="1"
       flexible="false"
       use_knot_distance="true"
       apply_no_radius="true"
       apply_with_radius="true"
       only_selected="false"
       hide_knots="false" /><inkscape:path-effect
       effect="fillet_chamfer"
       id="path-effect5"
       is_visible="true"
       lpeversion="1"
       nodesatellites_param="F,0,0,1,0,2.5309276,0,1 @ F,0,0,1,0,0,0,1 @ F,0,0,1,0,0,0,1 @ F,0,0,1,0,0,0,1"
       radius="0"
       unit="px"
       method="auto"
       mode="F"
       chamfer_steps="1"
       flexible="false"
       use_knot_distance="true"
       apply_no_radius="true"
       apply_with_radius="true"
       only_selected="false"
       hide_knots="false" /></defs><path
     id="path11"
     style="display:inline;fill:#ffffff;fill-rule:evenodd;stroke:none;stroke-width:5.40236;stroke-linecap:round;stroke-linejoin:round;stroke-miterlimit:2;stroke-dasharray:none;stroke-opacity:1;paint-order:stroke fill markers"
     inkscape:label="Trophy - No Stroke"
     d="M 17.992183 2.7011271 C 16.829229 2.7011271 15.904817 3.6441402 15.886369 4.8069417 C 15.71777 15.429184 15.393275 27.319168 24.651208 34.07854 C 28.136757 36.6234 30.088026 38.004643 30.133044 42.198457 L 33.863049 42.198457 L 37.592537 42.198457 C 37.637547 38.004643 39.588812 36.6234 43.074373 34.07854 C 52.332296 27.319168 52.007799 15.429184 51.839212 4.8069417 C 51.820759 3.6441402 50.896339 2.7011271 49.733398 2.7011271 L 33.863049 2.7011271 L 17.992183 2.7011271 z M 11.492322 5.016748 C 7.1992663 5.0256359 2.7807047 6.9918249 3.4876424 12.886552 C 4.6573192 22.639646 12.947736 26.403918 16.58245 27.19989 L 14.808915 22.106144 C 12.231197 20.671716 9.5698675 18.965903 8.3576293 14.312305 C 7.3841343 10.575202 9.0929061 8.8964033 12.587345 9.4490355 C 12.820309 9.4858685 13.061204 9.5323462 13.309782 9.5890787 L 13.309782 5.1273355 C 12.716926 5.0544812 12.105615 5.0154754 11.492322 5.016748 z M 56.233259 5.016748 C 55.619967 5.015388 55.008639 5.0544828 54.415799 5.1273355 L 54.415799 9.5890787 C 58.392901 8.6814228 60.406357 10.326065 59.367952 14.312305 C 58.15571 18.965905 55.494389 20.671715 52.916666 22.106144 L 52.029898 24.653275 L 51.143131 27.19989 C 54.777837 26.403917 63.068273 22.639646 64.237939 12.886552 C 64.944887 6.9918248 60.526315 5.0256264 56.233259 5.016748 z M 30.189371 45.233414 C 29.155158 49.466198 26.593507 51.569644 22.038448 51.544657 C 21.718487 51.542657 21.459672 51.790528 21.459672 52.110514 L 21.459672 56.814619 L 21.459672 58.717345 L 17.260962 58.717345 C 16.836395 58.717345 16.495117 59.058628 16.495117 59.48319 L 16.495117 64.15939 C 16.495117 64.583955 16.836395 64.925752 17.260962 64.925752 L 33.863049 64.925752 L 37.224601 64.925752 C 37.183521 64.068999 37.254189 63.195846 37.337255 62.371903 C 37.461299 60.417575 37.955404 58.436515 37.949104 56.511795 C 36.804226 54.991376 35.397018 53.698646 34.128149 52.286214 C 32.948643 50.86753 31.425923 49.404737 31.433223 47.418294 C 31.383589 46.571796 31.740043 45.827113 32.285884 45.233414 L 30.189371 45.233414 z " /><path
     d="m 50.31663,35.417983 c -1.598165,0 -4.7303,7.849203 -6.023176,8.788687 -1.293016,0.939339 -9.726034,1.492624 -10.219898,3.012578 -0.493872,1.519885 6.003386,6.924309 6.497256,8.444266 0.493864,1.520019 -1.585925,9.711155 -0.292903,10.650501 1.293017,0.939339 8.440556,-3.569789 10.038721,-3.569789 1.59816,0 8.745852,4.509204 10.03872,3.569789 1.293024,-0.939346 -0.786766,-9.130547 -0.292904,-10.650501 0.493869,-1.520032 6.991134,-6.924381 6.497263,-8.444333 -0.493867,-1.520033 -8.926891,-2.07324 -10.219829,-3.012652 -1.292884,-0.939343 -4.425013,-8.788688 -6.023175,-8.788688 z"
     fill="#ffffff"
     fill-opacity="1"
     id="path21"
     style="display:inline;fill:#f4900c;fill-opacity:1;stroke:none;stroke-width:2.35597;stroke-dasharray:none;stroke-opacity:1"
     inkscape:label="Star Icon - Orange" /></svg>
