<?xml version="1.0" encoding="UTF-8" standalone="no"?>
<!-- Created with Inkscape (http://www.inkscape.org/) -->

<svg
   width="256"
   height="256"
   viewBox="0 0 67.73333 67.733335"
   version="1.1"
   id="svg1"
   inkscape:version="1.4 (86a8ad7, 2024-10-11)"
   sodipodi:docname="Plus_Blue_NS.svg"
   xml:space="preserve"
   inkscape:export-filename="Plus_Blue_NS_256x256.png"
   inkscape:export-xdpi="96"
   inkscape:export-ydpi="96"
   xmlns:inkscape="http://www.inkscape.org/namespaces/inkscape"
   xmlns:sodipodi="http://sodipodi.sourceforge.net/DTD/sodipodi-0.dtd"
   xmlns="http://www.w3.org/2000/svg"
   xmlns:svg="http://www.w3.org/2000/svg"><sodipodi:namedview
     id="namedview1"
     pagecolor="#252525"
     bordercolor="#000000"
     borderopacity="0.25"
     inkscape:showpageshadow="2"
     inkscape:pageopacity="0.0"
     inkscape:pagecheckerboard="0"
     inkscape:deskcolor="#404040"
     inkscape:document-units="px"
     inkscape:zoom="0.7518079"
     inkscape:cx="162.2755"
     inkscape:cy="137.66815"
     inkscape:window-width="1920"
     inkscape:window-height="1009"
     inkscape:window-x="1072"
     inkscape:window-y="421"
     inkscape:window-maximized="1"
     inkscape:current-layer="svg1"
     showgrid="false"><inkscape:grid
       id="grid1"
       units="px"
       originx="0"
       originy="0"
       spacingx="0.26458332"
       spacingy="0.26458334"
       empcolor="#0099e5"
       empopacity="0.30196078"
       color="#0099e5"
       opacity="0.14901961"
       empspacing="5"
       enabled="true"
       visible="false" /></sodipodi:namedview><defs
     id="defs1"><inkscape:path-effect
       effect="fillet_chamfer"
       id="path-effect10"
       is_visible="true"
       lpeversion="1"
       nodesatellites_param="F,0,0,1,0,0.65283759,0,1 @ F,0,0,1,0,0.57318386,0,1 @ F,0,0,1,0,1.0515356,0,1 @ F,0,0,1,0,1.4900256,0,1 @ F,0,0,1,0,1.8135224,0,1 @ F,0,0,1,0,0.7823008,0,1"
       radius="0"
       unit="px"
       method="auto"
       mode="F"
       chamfer_steps="1"
       flexible="false"
       use_knot_distance="true"
       apply_no_radius="true"
       apply_with_radius="true"
       only_selected="false"
       hide_knots="false" /><inkscape:path-effect
       effect="fillet_chamfer"
       id="path-effect7"
       is_visible="true"
       lpeversion="1"
       nodesatellites_param="F,0,0,1,0,0.69638098,0,1 @ F,0,0,1,0,0,0,1 @ F,0,0,1,0,0,0,1 @ F,0,0,1,0,0,0,1 @ F,0,0,1,0,0.84502429,0,1"
       radius="0"
       unit="px"
       method="auto"
       mode="F"
       chamfer_steps="1"
       flexible="false"
       use_knot_distance="true"
       apply_no_radius="true"
       apply_with_radius="true"
       only_selected="false"
       hide_knots="false" /><inkscape:path-effect
       effect="fillet_chamfer"
       id="path-effect5"
       is_visible="true"
       lpeversion="1"
       nodesatellites_param="F,0,0,1,0,2.5309276,0,1 @ F,0,0,1,0,0,0,1 @ F,0,0,1,0,0,0,1 @ F,0,0,1,0,0,0,1"
       radius="0"
       unit="px"
       method="auto"
       mode="F"
       chamfer_steps="1"
       flexible="false"
       use_knot_distance="true"
       apply_no_radius="true"
       apply_with_radius="true"
       only_selected="false"
       hide_knots="false" /></defs><path
     id="path11"
     style="display:inline;fill:#ffffff;fill-rule:evenodd;stroke:none;stroke-width:5.40236;stroke-linecap:round;stroke-linejoin:round;stroke-miterlimit:2;stroke-dasharray:none;stroke-opacity:1;paint-order:stroke fill markers"
     inkscape:label="Trophy - No Stroke"
     d="M 17.992183 2.7011271 C 16.829229 2.7011271 15.904817 3.6441402 15.886369 4.8069417 C 15.71777 15.429184 15.393275 27.319168 24.651208 34.07854 C 28.136757 36.6234 30.088026 38.004643 30.133044 42.198457 L 33.863049 42.198457 L 37.592537 42.198457 C 37.636115 38.138069 39.480405 36.70564 42.76018 34.309533 C 43.198612 33.230774 44.010892 32.324244 45.153832 31.951021 C 45.293525 31.928321 45.433996 31.91614 45.573962 31.897277 C 52.264812 24.947843 51.990911 14.36507 51.839212 4.8069417 C 51.820759 3.6441402 50.896339 2.7011271 49.733398 2.7011271 L 33.863049 2.7011271 L 17.992183 2.7011271 z M 11.492322 5.016748 C 7.1992663 5.0256359 2.7807047 6.9918249 3.4876424 12.886552 C 4.6573192 22.639646 12.947736 26.403918 16.58245 27.19989 L 14.808915 22.106144 C 12.231197 20.671716 9.5698675 18.965903 8.3576293 14.312305 C 7.3841343 10.575202 9.0929061 8.8964033 12.587345 9.4490355 C 12.820309 9.4858685 13.061204 9.5323462 13.309782 9.5890787 L 13.309782 5.1273355 C 12.716926 5.0544812 12.105615 5.0154754 11.492322 5.016748 z M 56.233259 5.016748 C 55.619967 5.015388 55.008639 5.0544828 54.415799 5.1273355 L 54.415799 9.5890787 C 58.392901 8.6814228 60.406357 10.326065 59.367952 14.312305 C 58.15571 18.965905 55.494389 20.671715 52.916666 22.106144 L 52.029898 24.653275 L 51.143131 27.19989 C 54.777837 26.403917 63.068273 22.639646 64.237939 12.886552 C 64.944887 6.9918248 60.526315 5.0256264 56.233259 5.016748 z M 30.189371 45.233414 C 29.155158 49.466198 26.593507 51.569644 22.038448 51.544657 C 21.718487 51.542657 21.459672 51.790528 21.459672 52.110514 L 21.459672 56.814619 L 21.459672 58.717345 L 17.260962 58.717345 C 16.836395 58.717345 16.495117 59.058628 16.495117 59.48319 L 16.495117 64.15939 C 16.495117 64.583955 16.836395 64.925752 17.260962 64.925752 L 33.863049 64.925752 L 42.569494 64.925752 C 42.327343 62.646447 42.500303 60.329227 42.463041 58.038834 L 37.320719 58.038834 C 35.320445 58.35941 32.905097 57.529714 32.159794 55.498937 C 31.640032 52.959116 31.956137 50.341155 31.876607 47.766076 C 31.737092 46.942702 31.802318 46.051511 32.063159 45.233414 L 30.189371 45.233414 z " /><path
     id="path17"
     style="display:inline;fill:#6ac5fe;fill-opacity:1;fill-rule:evenodd;stroke:none;stroke-width:3.31165;stroke-linecap:round;stroke-linejoin:round;stroke-miterlimit:2;stroke-dasharray:none;stroke-opacity:1"
     d="m 46.470679,34.37228 c -0.760076,0 -1.372002,0.611925 -1.372002,1.372001 v 9.206954 h -9.206954 c -0.760073,0 -1.372004,0.611926 -1.372004,1.371999 v 7.696701 c 0,0.760076 0.611931,1.372002 1.372004,1.372002 h 9.206954 v 9.206955 c 0,0.760077 0.611926,1.371997 1.372002,1.371997 h 7.696689 c 0.760082,0 1.372007,-0.61192 1.372007,-1.371997 v -9.206955 h 9.206955 c 0.760065,0 1.371997,-0.611926 1.371997,-1.372002 v -7.696701 c 0,-0.760073 -0.611932,-1.371999 -1.371997,-1.371999 h -9.206959 v -9.206954 c 0,-0.760076 -0.611927,-1.372001 -1.372003,-1.372001 z"
     inkscape:label="Plus Icon - Blue" /></svg>
