<?xml version="1.0" encoding="UTF-8" standalone="no"?>
<!-- Created with Inkscape (http://www.inkscape.org/) -->

<svg
   width="256"
   height="256"
   viewBox="0 0 67.73333 67.733335"
   version="1.1"
   id="svg1"
   inkscape:version="1.4 (86a8ad7, 2024-10-11)"
   sodipodi:docname="Check_Green_NS.svg"
   xml:space="preserve"
   inkscape:export-filename="Check_Green_NS_256x256.png"
   inkscape:export-xdpi="96"
   inkscape:export-ydpi="96"
   xmlns:inkscape="http://www.inkscape.org/namespaces/inkscape"
   xmlns:sodipodi="http://sodipodi.sourceforge.net/DTD/sodipodi-0.dtd"
   xmlns="http://www.w3.org/2000/svg"
   xmlns:svg="http://www.w3.org/2000/svg"><sodipodi:namedview
     id="namedview1"
     pagecolor="#252525"
     bordercolor="#000000"
     borderopacity="0.25"
     inkscape:showpageshadow="2"
     inkscape:pageopacity="0.0"
     inkscape:pagecheckerboard="0"
     inkscape:deskcolor="#404040"
     inkscape:document-units="px"
     inkscape:zoom="0.53160846"
     inkscape:cx="-31.978422"
     inkscape:cy="236.076"
     inkscape:window-width="1920"
     inkscape:window-height="1009"
     inkscape:window-x="1072"
     inkscape:window-y="421"
     inkscape:window-maximized="1"
     inkscape:current-layer="svg1"
     showgrid="false"><inkscape:grid
       id="grid1"
       units="px"
       originx="0"
       originy="0"
       spacingx="0.26458332"
       spacingy="0.26458334"
       empcolor="#0099e5"
       empopacity="0.30196078"
       color="#0099e5"
       opacity="0.14901961"
       empspacing="5"
       enabled="true"
       visible="false" /></sodipodi:namedview><defs
     id="defs1"><inkscape:path-effect
       effect="fillet_chamfer"
       id="path-effect10"
       is_visible="true"
       lpeversion="1"
       nodesatellites_param="F,0,0,1,0,0.65283759,0,1 @ F,0,0,1,0,0.57318386,0,1 @ F,0,0,1,0,1.0515356,0,1 @ F,0,0,1,0,1.4900256,0,1 @ F,0,0,1,0,1.8135224,0,1 @ F,0,0,1,0,0.7823008,0,1"
       radius="0"
       unit="px"
       method="auto"
       mode="F"
       chamfer_steps="1"
       flexible="false"
       use_knot_distance="true"
       apply_no_radius="true"
       apply_with_radius="true"
       only_selected="false"
       hide_knots="false" /><inkscape:path-effect
       effect="fillet_chamfer"
       id="path-effect7"
       is_visible="true"
       lpeversion="1"
       nodesatellites_param="F,0,0,1,0,0.69638098,0,1 @ F,0,0,1,0,0,0,1 @ F,0,0,1,0,0,0,1 @ F,0,0,1,0,0,0,1 @ F,0,0,1,0,0.84502429,0,1"
       radius="0"
       unit="px"
       method="auto"
       mode="F"
       chamfer_steps="1"
       flexible="false"
       use_knot_distance="true"
       apply_no_radius="true"
       apply_with_radius="true"
       only_selected="false"
       hide_knots="false" /><inkscape:path-effect
       effect="fillet_chamfer"
       id="path-effect5"
       is_visible="true"
       lpeversion="1"
       nodesatellites_param="F,0,0,1,0,2.5309276,0,1 @ F,0,0,1,0,0,0,1 @ F,0,0,1,0,0,0,1 @ F,0,0,1,0,0,0,1"
       radius="0"
       unit="px"
       method="auto"
       mode="F"
       chamfer_steps="1"
       flexible="false"
       use_knot_distance="true"
       apply_no_radius="true"
       apply_with_radius="true"
       only_selected="false"
       hide_knots="false" /></defs><path
     id="path11"
     style="display:inline;fill:#ffffff;fill-rule:evenodd;stroke:none;stroke-width:5.40226243;stroke-linecap:round;stroke-linejoin:round;stroke-miterlimit:2;stroke-dasharray:none;stroke-opacity:1;paint-order:stroke fill markers"
     inkscape:label="Trophy - No Stroke"
     d="M 17.992183 2.7011271 C 16.829229 2.7011271 15.904817 3.6441402 15.886369 4.8069417 C 15.71777 15.429184 15.393275 27.319168 24.651208 34.07854 C 28.136757 36.6234 30.088026 38.004643 30.133044 42.198457 L 33.863049 42.198457 L 37.592537 42.198457 C 37.637547 38.004643 39.588812 36.6234 43.074373 34.07854 C 52.332296 27.319168 52.007799 15.429184 51.839212 4.8069417 C 51.820759 3.6441402 50.896339 2.7011271 49.733398 2.7011271 L 33.863049 2.7011271 L 17.992183 2.7011271 z M 11.492322 5.016748 C 7.1992663 5.0256359 2.7807047 6.9918249 3.4876424 12.886552 C 4.6573192 22.639646 12.947736 26.403918 16.58245 27.19989 L 14.808915 22.106144 C 12.231197 20.671716 9.5698675 18.965903 8.3576293 14.312305 C 7.3841343 10.575202 9.0929061 8.8964033 12.587345 9.4490355 C 12.820309 9.4858685 13.061204 9.5323462 13.309782 9.5890787 L 13.309782 5.1273355 C 12.716926 5.0544812 12.105615 5.0154754 11.492322 5.016748 z M 56.233259 5.016748 C 55.619967 5.015388 55.008639 5.0544828 54.415799 5.1273355 L 54.415799 9.5890787 C 58.392901 8.6814228 60.406357 10.326065 59.367952 14.312305 C 58.15571 18.965905 55.494389 20.671715 52.916666 22.106144 L 52.029898 24.653275 L 51.143131 27.19989 C 54.777837 26.403917 63.068273 22.639646 64.237939 12.886552 C 64.944887 6.9918248 60.526315 5.0256264 56.233259 5.016748 z M 30.189371 45.233414 C 29.155158 49.466198 26.593507 51.569644 22.038448 51.544657 C 21.718487 51.542657 21.459672 51.790528 21.459672 52.110514 L 21.459672 56.814619 L 21.459672 58.717345 L 17.260962 58.717345 C 16.836395 58.717345 16.495117 59.058628 16.495117 59.48319 L 16.495117 64.15939 C 16.495117 64.583955 16.836395 64.925752 17.260962 64.925752 L 33.863049 64.925752 L 41.712699 64.925752 C 38.946815 63.077832 36.214385 61.178048 33.449121 59.330228 C 31.846468 58.573583 30.419398 56.761765 31.025496 54.918094 C 32.638298 52.08151 34.733003 49.556896 36.586914 46.878792 C 36.817251 46.370039 37.177669 45.90136 37.615791 45.522285 C 37.589819 45.42525 37.560492 45.332797 37.53621 45.233414 L 33.863049 45.233414 L 30.189371 45.233414 z " /><path
     id="path15"
     style="display:inline;fill:#08af50;fill-opacity:1;fill-rule:evenodd;stroke:none;stroke-width:4.54955;stroke-linecap:round;stroke-linejoin:round;stroke-miterlimit:2;stroke-dasharray:none;stroke-opacity:1;paint-order:stroke fill markers"
     d="m 40.142342,47.392149 5.328944,6.628692 c 0.145835,0.181375 0.429785,0.153819 0.538019,-0.05222 L 57.898243,31.345015 c 0.198847,-0.378392 0.720099,-0.429567 0.988733,-0.09705 l 4.783412,5.920466 c 0.484312,0.599439 0.546205,1.436355 0.155329,2.100513 L 48.859508,64.699057 c -0.428385,0.727896 -1.382396,0.942884 -2.081582,0.46909 L 33.822441,56.389132 c -0.30489,-0.206598 -0.378927,-0.624198 -0.163647,-0.923023 l 5.803787,-8.055994 c 0.165024,-0.229063 0.502869,-0.237993 0.679761,-0.01797 z"
     sodipodi:nodetypes="ccccccccccscsc"
     inkscape:label="Check Icon - Green" /></svg>
